# xmcd CD database file
#
# Track frame offsets:
#	150
#	16936
#	29300
#	48575
#	64158
#	88111
#	98076
#	111279
#	126518
#
# Disc length: 1873 seconds
#
# Revision: 0
# Processed by: cddbd v1.5.2PL0 Copyright (c) Steve Scherf et al.
# Submitted via: CDex 1.51
#
DISCID=77074f09
DTITLE=Woody Herman - The Third Herd 'Live' 1952 CD2
DYEAR=1952
DGENRE=Jazz
TTITLE0=Terressita
TTITLE1=Medley: I Cant Believe That You're In Love With Me_Somewhere Along The Way
TTITLE2=I May Be Wrong
TTITLE3=He's Funny That Way
TTITLE4=Medley: Amen_Who Dat Up Dere_Laura_Caldonia
TTITLE5=Trouble In Mind
TTITLE6=Half As Much
TTITLE7=Make Believe Dreams
TTITLE8=The Blues
EXTD=YEAR: 1952
EXTT0=
EXTT1=
EXTT2=
EXTT3=
EXTT4=
EXTT5=
EXTT6=
EXTT7=
EXTT8=
PLAYORDER=
